<svg xmlns="http://www.w3.org/2000/svg" viewBox="0 0 512 512" width="512" height="512">
  <defs>
    <linearGradient id="grad" x1="0%" y1="0%" x2="100%" y2="100%">
      <stop offset="0%" stop-color="#10b981" />
      <stop offset="50%" stop-color="#059669" />
      <stop offset="100%" stop-color="#047857" />
    </linearGradient>
    <linearGradient id="glow" x1="0%" y1="0%" x2="0%" y2="100%">
      <stop offset="0%" stop-color="#34d399" stop-opacity="0.8" />
      <stop offset="100%" stop-color="#059669" stop-opacity="0.2" />
    </linearGradient>
  </defs>
  <!-- Background Rounded Squircle -->
  <rect width="512" height="512" rx="128" fill="#090d16" />
  <rect x="24" y="24" width="464" height="464" rx="104" fill="none" stroke="#1e293b" stroke-width="6" />
  
  <!-- Outer glowing emblem -->
  <circle cx="256" cy="256" r="170" fill="#0f172a" stroke="#334155" stroke-width="4" />
  
  <!-- ClearSpends Stylized Chart & Spark Logo -->
  <!-- Ascending Expense Chart Bars -->
  <rect x="156" y="280" width="36" height="80" rx="10" fill="#334155" />
  <rect x="208" y="230" width="36" height="130" rx="10" fill="#059669" />
  <rect x="260" y="170" width="36" height="190" rx="10" fill="url(#grad)" />
  <rect x="312" y="130" width="36" height="230" rx="10" fill="#34d399" />
  
  <!-- Dynamic Trend Curve -->
  <path d="M 140 310 Q 230 220 330 110" fill="none" stroke="#6ee7b7" stroke-width="12" stroke-linecap="round" />
  
  <!-- AI Sparkle at Peak -->
  <polygon points="340,90 350,110 370,120 350,130 340,150 330,130 310,120 330,110" fill="#fbbf24" />
  <circle cx="340" cy="120" r="4" fill="#ffffff" />
</svg>
